<?xml version="1.0" standalone="no"?>
<!DOCTYPE svg PUBLIC "-//W3C//DTD SVG 20010904//EN"
 "http://www.w3.org/TR/2001/REC-SVG-20010904/DTD/svg10.dtd">
<svg version="1.0" xmlns="http://www.w3.org/2000/svg"
 width="512.000000pt" height="512.000000pt" viewBox="0 0 512.000000 512.000000"
 preserveAspectRatio="xMidYMid meet">
<metadata>
Created by potrace 1.14, written by Peter Selinger 2001-2017
</metadata>
<g transform="translate(0.000000,512.000000) scale(0.100000,-0.100000)"
fill="#000000" stroke="none">
<path d="M2848 5015 c-2 -1 -47 -5 -102 -9 -54 -3 -126 -10 -160 -16 -33 -5
-79 -12 -101 -16 -34 -5 -127 -24 -189 -39 -463 -111 -896 -391 -1179 -765
-31 -41 -62 -80 -67 -87 -6 -7 -10 -14 -10 -17 0 -2 -18 -31 -39 -64 -76 -113
-170 -319 -224 -487 -23 -71 -50 -166 -49 -172 1 -2 -4 -17 -9 -35 -5 -18 -12
-46 -14 -63 -3 -16 -8 -41 -10 -55 -13 -65 -16 -78 -21 -120 -12 -90 -14 -106
-21 -190 -9 -109 -9 -501 0 -605 12 -126 21 -203 32 -255 3 -14 7 -40 10 -58
6 -47 54 -243 66 -267 5 -11 11 -29 12 -40 4 -19 10 -37 27 -80 4 -11 20 -51
35 -90 24 -61 85 -188 126 -265 35 -64 138 -213 197 -285 294 -358 684 -599
1154 -714 124 -30 148 -35 222 -46 156 -23 262 -30 476 -30 283 0 397 12 660
70 171 37 423 130 605 223 50 25 92 47 94 49 5 4 8 942 3 959 -2 6 -44 -16
-95 -50 -96 -64 -162 -105 -175 -107 -4 -1 -18 -9 -32 -19 -75 -52 -369 -170
-485 -195 -201 -43 -244 -48 -450 -49 -115 -1 -230 3 -255 7 -202 36 -335 87
-480 183 -108 71 -171 133 -301 292 -70 86 -196 364 -225 497 -48 224 -55 289
-59 545 -3 183 9 366 30 459 3 15 8 40 11 56 21 121 88 315 151 433 85 161
232 333 363 424 61 43 159 97 240 132 55 23 225 65 299 74 84 9 323 9 421 0
102 -10 273 -45 335 -68 14 -5 36 -12 48 -14 34 -7 185 -70 278 -116 106 -53
181 -97 291 -171 47 -33 88 -59 90 -59 5 0 2 969 -3 973 -5 5 -199 98 -269
129 -125 57 -400 141 -535 163 -16 3 -41 7 -55 10 -14 3 -38 7 -55 9 -93 14
-114 17 -155 22 -46 6 -446 14 -452 9z"/>
</g>
</svg>
